<svg width="22" height="20" viewBox="0 0 22 20" fill="none" xmlns="http://www.w3.org/2000/svg">
<path d="M11.0472 0.259534C11.0858 0.173662 11.2077 0.173661 11.2462 0.259534L14.1468 6.72236C14.1627 6.75769 14.1961 6.78197 14.2346 6.78613L21.2775 7.54768C21.3711 7.5578 21.4087 7.67375 21.339 7.73694L16.0888 12.4927C16.0601 12.5187 16.0473 12.558 16.0553 12.5959L17.5074 19.5294C17.5267 19.6215 17.428 19.6932 17.3464 19.6464L11.201 16.1228C11.1674 16.1035 11.1261 16.1035 11.0925 16.1228L4.94705 19.6464C4.86539 19.6932 4.76676 19.6215 4.78605 19.5294L6.23814 12.5959C6.24608 12.558 6.23332 12.5187 6.20461 12.4927L0.95445 7.73694C0.88469 7.67375 0.922364 7.5578 1.01594 7.54768L8.0588 6.78613C8.09731 6.78197 8.13072 6.75769 8.14658 6.72236L11.0472 0.259534Z" fill="#E1E60A"/>
</svg>
