<svg width="834" height="438" viewBox="0 0 834 438" fill="none" xmlns="http://www.w3.org/2000/svg">
<path d="M-10 195.39C41.5045 258.782 131.164 412.216 156.556 470.956L205.702 444.937C191.122 406.106 153.902 318.389 121.663 278.178C81.3636 227.914 17.4744 153.404 21.406 -6.85031H95.1243C82.1827 29.616 71.7311 123.127 133.458 205.443C210.616 308.337 267.134 436.658 266.642 453.807H310.382C304.648 423.255 286.595 352.687 260.253 314.841C227.326 267.534 108.398 118.515 160.984 -6.85031H236.668C212.259 32.1785 188.599 136.373 289.249 264.577C332.89 312.831 358.872 410.836 366.408 453.807L413.587 444.937C413.751 409.654 402.186 324.185 354.613 264.577C295.147 190.068 254.72 101.957 318.609 -7.44165H399.051C369.564 25.6737 322.177 108.344 371.322 195.39C432.754 304.197 470.596 347.957 463.224 453.807L506.964 444.937C504.179 399.009 490.746 297.574 459.293 259.255C419.976 211.356 349.667 94.861 474.497 -7.44165L544.447 -7.44146M544.447 -7.44146C507.915 27.2508 438.258 105.505 454.378 162.274C474.528 233.236 529.571 259.255 530.554 317.207C531.537 375.159 535.468 436.067 550.212 444.937C557.289 444.937 584.286 444.937 596.9 444.937C585.433 423.057 564.563 367.826 572.819 321.937C583.14 264.577 506.964 220.226 506.964 169.962C506.964 119.698 566.922 14.4381 636.217 -7.44165L544.447 -7.44146ZM772.35 104.323C848.034 156.952 849.727 349.656 794.957 349.656C753.731 349.656 728.814 327.601 692.243 349.656C674.983 360.064 707.829 272.465 663.247 229.096C555.431 124.217 718.29 78.5674 772.35 104.323Z" stroke="#95CDDC" stroke-opacity="0.35" stroke-width="2"/>
</svg>
