<svg width="533" height="438" viewBox="0 0 533 438" fill="none" xmlns="http://www.w3.org/2000/svg">
<path d="M1 -8.50488C20.3622 34.5626 59.3738 128.047 62.5243 171.667C66.4623 226.193 102.52 332.486 38.0339 443.316H105.596C109.698 420.399 118.543 362.271 120.119 321.021C122.088 269.458 107.812 164.555 98.4592 134.922C89.1063 105.288 45.8703 -8.50488 56.0504 -8.50488C67.561 -8.50488 83.0752 -8.50488 102.397 -8.50488C122.252 56.0964 161.764 189.803 160.976 207.82C159.992 230.342 165.15 429.193 155.141 443.316C155.822 440.945 189.062 443.316 205.187 443.316C207.32 383.061 209.415 253.93 204.295 227.379C197.896 194.189 149.964 6.90458 139.627 -8.50488C142.384 -8.50488 180.476 -8.50488 199.181 -8.50488C206.401 33.3773 225.205 68.1591 247.614 142.626C263.859 218.488 285.712 386.419 246.725 443.316H297.271C308.593 401.038 329.624 302.648 324.899 255.234C318.992 195.967 268.781 51.9476 255.982 -8.50488H308.162C324.899 42.2673 358.372 151.635 358.372 182.928C358.372 222.045 383.81 410.719 351.321 443.316H407.873C407.873 407.558 407.598 326.829 407.598 286.053C407.598 235.083 398.738 125.439 375.109 87.508C356.206 57.1632 351.481 10.8557 351.481 -8.50488H395.784M395.784 -8.50488C418.1 60.4426 461.156 211.139 454.855 262.346C446.979 326.355 462.218 424.35 449.911 443.316H499.456M395.784 -8.50488C417.381 -8.50488 424.388 -8.50488 449.44 -8.50488M499.456 443.316C513.688 443.316 498.174 227.379 498.174 161.488C498.174 108.775 465.685 26.1957 449.44 -8.50488M499.456 443.316H547L545.999 286.053C550.003 238.836 529.317 70.0072 518.474 -8.50488H449.44" stroke="#95CDDC" stroke-opacity="0.35" stroke-width="2"/>
</svg>
